<svg data-name="Layer 1" viewBox="0 0 128 128" xmlns="http://www.w3.org/2000/svg"><path d="M64 20.5c24 0 43.5 17.76 43.5 39.59S88 99.69 64 99.69a47.6 47.6 0 0 1-11.71-1.46l-2.38-.6-2.18 1.12-9 4.63V92.44l-2.56-2C26.2 82.93 20.5 71.85 20.5 60.09 20.5 38.26 40 20.5 64 20.5m0-6.5c-27.61 0-50 20.64-50 46.09 0 14.32 7.08 27.11 18.19 35.57V114l18.5-9.48A54 54 0 0 0 64 106.19c27.61 0 50-20.64 50-46.09S91.61 14 64 14Z" fill="#ffffff" class="fill-062b31"></path><path d="m33.19 74.06 25.58-27.44L71.76 59.7l23.05-12.6-25.68 28.03-12.6-13.77-23.34 12.7z" fill="#ffffff" class="fill-062b31"></path></svg>